<?xml version="1.0" encoding="UTF-8" standalone="no"?>
<!-- Created with Inkscape (http://www.inkscape.org/) -->
<svg version="1.1" width="298.52139" height="298.51987" id="svg2" xmlns="http://www.w3.org/2000/svg" xmlns:svg="http://www.w3.org/2000/svg">
  <defs id="defs4"/>
  <g transform="translate(-205.62553,-388.17613)" id="layer1">
    <path d="m 426.06668,388.88652 c -2.72507,-0.49547 -8.49977,9.27247 -8.49977,9.27247 0,0 -5.88573,22.88068 -9.70175,22.88068 -3.81602,0 -5.89161,-5.53881 -4.85088,-9.70175 1.04074,-4.16294 6.56343,-8.668 2.7474,-9.0149 -3.81603,-0.34692 -7.29429,7.28383 -7.6412,8.67147 -1.00966,4.03865 5.57259,21.49303 2.10347,22.88069 -3.46912,1.38764 -8.33262,-1.01046 -12.14865,-7.25485 -3.81603,-6.24442 -7.6412,-10.40712 -7.6412,-12.83551 0,-2.42837 1.38764,-3.13724 0,-2.79033 -1.38765,0.34692 -2.75089,2.44801 -2.40398,6.61093 0.3469,4.16294 5.55973,11.7854 8.68193,16.29525 3.12222,4.50984 10.38164,5.55037 10.03473,14.57006 -0.3469,9.0197 -7.26532,21.14133 -6.22458,31.89559 1.50075,15.50769 12.49208,23.26703 12.49208,23.26703 l -6.61093,-1.0732 -0.34342,2.79033 c 0,0 5.20236,1.74958 8.67148,2.79032 3.46911,1.04073 5.53772,1.03028 5.53772,1.03028 l 4.85088,1.03027 c 0,0 -5.18036,1.03028 -6.568,1.03028 -1.38765,0 1.71712,1.76005 1.71712,1.76005 l 12.49208,-1.03027 9.35833,3.8206 -0.34343,10.73202 -13.52235,1.3737 c 0,0 -12.14626,4.18495 -16.65611,2.10348 -4.50985,-2.08147 -21.15178,-12.15911 -30.86531,-11.11838 -9.71351,1.04073 -17.68746,1.40965 -21.8504,2.10348 -4.16294,0.69381 -39.56686,-2.10697 -45.11744,-1.76005 -5.55059,0.34691 -11.06958,0.34342 -15.92633,0.34342 -4.85676,0 -17.01217,-3.78813 -24.29731,-2.7474 -7.28514,1.04074 -21.85041,5.1943 -21.85041,5.1943 0,0 -8.68303,-3.83456 -11.80523,-2.4469 -3.1222,1.38764 -6.95435,5.23723 -6.95435,5.23723 l -3.09083,2.7474 -0.34342,1.76005 7.34071,-0.98735 c -1.09473,0.2462 -3.10391,1.04968 -1.80299,3.39132 1.73456,3.1222 3.82061,5.58066 3.82061,5.58066 0,0 -3.14073,-0.36326 -2.44691,5.88115 0.69383,6.24441 4.50398,17.36149 4.85088,19.78986 0.34691,2.42838 3.83455,11.78888 2.4469,17.68638 -1.38764,5.8975 -20.4767,27.04471 -20.4767,27.04471 l -2.06055,29.83503 -4.85088,30.86531 0.34342,3.47718 -0.0549,5.99089 15.9812,4.19147 c 0,0 2.43188,-2.5527 -0.34342,-5.67491 -2.77529,-3.1222 -3.47718,-4.85088 -3.47718,-4.85088 l 0.72978,-29.83503 c 0,0 -0.35279,-14.22881 4.85088,-20.82013 5.20366,-6.59132 6.91142,-7.98463 6.91142,-7.98463 l 18.41616,-15.58291 0.34342,0.68685 -9.35832,12.49208 c 0,0 -3.82758,1.03136 -3.13376,5.1943 0.69383,4.16295 12.47116,12.49317 14.55263,16.65611 2.08147,4.16294 20.13329,25.67101 20.13329,25.67101 l -0.34343,6.568 5.1943,5.23723 0.68685,3.43425 2.10348,3.8206 10.73203,-0.34343 c 0,0 0.35736,-1.01284 -1.03028,-2.74739 -1.38764,-1.73456 -3.13375,-2.79033 -3.13375,-2.79033 l -0.68685,-6.61093 -1.71712,-2.40397 -0.34343,-5.53773 -25.32758,-30.90824 c 0,0 -2.44691,-0.67399 -2.44691,-6.22457 0,-5.55059 3.82061,-7.98463 3.82061,-7.98463 l 14.93898,-15.96926 c 0,0 13.87254,7.62726 26.01443,9.0149 12.14191,1.38765 36.40304,-3.09082 36.40304,-3.09082 l 5.53772,-0.34342 c 0,0 -4.1431,15.23817 -6.22457,23.91095 -2.08147,8.67278 -3.8206,16.31268 -3.8206,16.31268 0,0 -9.71331,12.4862 -12.83551,17.34296 -3.12221,4.85675 -8.32805,10.77495 -8.32805,10.77495 l 0.0549,4.14854 -3.53205,7.38008 14.66237,2.06055 -2.51371,-8.05144 2.82971,2.08799 c 0,0 1.32145,-10.41124 6.87204,-19.43095 5.55058,-9.01969 10.41061,-13.18697 12.49208,-16.6561 2.08147,-3.46912 6.26161,-19.43009 11.11838,-25.32759 4.85675,-5.89749 6.61201,-11.80523 10.77495,-11.80523 4.16294,0 2.40398,7.98463 2.40398,7.98463 0,0 6.93343,30.53344 9.0149,33.65564 2.08147,3.1222 2.79033,5.88115 2.79033,5.88115 0,0 3.47717,21.8759 3.47717,23.61046 0,1.73456 -2.51371,7.68059 -2.51371,7.68059 l 14.97835,3.17312 0.37087,-8.44974 c 0,0 -2.42249,0.003 -4.85088,-4.50745 -2.42838,-4.50984 -5.58763,-23.91902 -4.8938,-27.38813 0.69381,-3.46911 1.07669,-6.25356 0.72978,-7.6412 -0.3469,-1.38765 -3.83456,-22.53487 -2.44691,-27.04471 1.38765,-4.50986 2.06055,-9.0149 2.06055,-9.0149 l 6.95436,-3.13376 10.42346,-8.48321 c 0,0 7.77522,-8.17901 9.85669,-7.13826 2.08148,1.04073 15.28481,-8.29929 16.67246,-8.29929 l 12.66987,-4.69551 4.13854,-1.20024 3.8485,-1.0488 c 0,0 8.98112,-5.23374 16.61317,-5.58065 7.63206,-0.34691 15.62584,0.72978 15.62584,0.72978 0,0 2.7694,3.81711 4.85087,4.16402 2.08147,0.34692 7.64121,-3.8206 7.64121,-3.8206 0,0 6.23853,-6.61899 4.85087,-10.0881 -1.38764,-3.46913 -3.13375,-5.1943 -3.13375,-5.1943 l -30.86531,-17.34296 -3.47718,-2.79033 -0.34342,-2.06055 7.98463,-0.34342 c 0,0 3.82626,-3.32486 9.72376,-8.70199 7.51085,-9.27376 5.65747,-9.80343 15.7934,-13.49425 0.34692,-1.38764 9.87303,-2.77049 8.13847,-4.50504 -1.73455,-1.73456 -5.53772,-6.61093 -5.53772,-6.61093 l -0.34343,-5.1943 -3.47717,2.40397 v 3.13375 l -0.34343,2.79033 -2.10348,1.03027 c 0,0 -5.17687,-2.77289 -6.91142,-4.50745 -1.73456,-1.73457 -2.79033,-3.13375 -2.79033,-3.13375 l -3.47718,5.92408 h -2.40397 l 2.7474,-6.2675 c 0,0 -3.79619,5.20128 -6.22458,4.50745 -2.42838,-0.69383 3.45517,-11.07545 1.3737,-11.07545 -2.08147,0 -3.80317,6.22457 -5.53772,6.22457 -1.73456,0 -2.10348,-9.35833 -2.10348,-9.35833 0,0 1.74501,-4.16402 -1.03027,-4.16402 -2.7753,0 -4.51095,5.91013 -4.16403,7.29778 0.34691,1.38764 0.36086,12.13122 -1.3737,13.86577 -1.73456,1.73457 -16.31268,10.04518 -16.31268,10.04518 l -6.22458,-3.47718 c 0,0 -2.45737,-1.02439 -1.41662,-5.88115 1.04072,-4.85675 8.35812,-18.73976 13.9087,-24.98416 5.55059,-6.24441 20.46277,-25.31015 21.85041,-27.0447 1.38766,-1.73456 5.53881,-8.67954 7.27337,-11.45483 1.48236,-2.37176 3.82648,-9.02188 1.39811,-9.02188 -2.42839,0 -4.16403,5.53773 -4.16403,5.53773 0,0 -3.11632,5.55515 -4.85088,3.8206 -1.73455,-1.73456 1.3737,-5.1943 1.3737,-5.1943 0,0 4.85088,-7.64578 4.85088,-11.46181 0,-3.81603 -4.49002,-10.74597 -6.22458,-9.35833 -1.73455,1.38765 1.3737,6.61093 1.3737,6.61093 0,0 0.35739,6.21063 -1.03027,7.59828 -1.38764,1.38765 -3.15576,3.48414 -5.23723,2.79032 -2.08147,-0.69382 -2.06055,-2.40397 -2.06055,-2.40397 l 0.68685,-19.78986 c 0,0 2.08496,-4.16402 -0.34342,-4.16402 -2.42839,0 -3.81015,6.916 -4.85088,10.73202 -1.04074,3.81603 1.01523,18.41267 -1.76005,18.75959 -2.7753,0.34691 -6.568,-4.16403 -6.568,-4.16403 0,0 -12.832,-17.33706 -13.17893,-22.19383 -0.19929,-2.78978 -1.41663,3.8206 -1.41663,3.8206 0,0 -1.0233,-5.21173 -1.71712,-3.47718 -0.69383,1.73456 -8.32109,7.62377 -9.01491,9.35833 -0.69383,1.73456 -0.008,3.82758 -3.47717,3.13375 -3.46912,-0.69381 -2.06055,-8.67148 -2.06055,-8.67148 0,0 6.22457,-13.54087 6.22457,-15.96925 0,-0.19989 -0.33346,-0.22453 -0.51513,-0.25757 h 3e-5 z m 9.53004,18.28737 2.10347,6.95436 c 0,0 -5.58065,2.43535 -5.58065,-0.68685 0,-3.12222 3.47718,-6.26751 3.47718,-6.26751 z m 5.1943,13.52236 c 0,0 11.82613,10.42216 9.74468,15.62583 -2.08147,5.20368 -2.79033,4.16403 -2.79033,4.16403 l -21.85041,-11.80523 c 0,0 4.85196,-4.49002 9.01491,-6.22458 4.16294,-1.73456 5.88115,-1.76005 5.88115,-1.76005 z m -22.53726,14.93898 20.47671,9.70175 c 0,0 5.88115,1.75417 5.88115,6.61093 0,4.85676 -0.32948,12.81458 -1.71713,14.89605 -1.38765,2.08147 -12.1382,21.87242 -13.17893,23.95389 -1.04074,2.08147 -2.7973,5.8927 -2.10347,9.0149 0.69381,3.12221 0.004,5.88813 -0.34343,5.1943 0,0 -9.70153,-2.85051 -22.53725,-11.11838 -6.94356,-4.47254 -4.8171,-17.57937 -4.50746,-19.74693 l 9.70176,-24.64073 5.1943,-11.11838 z m 65.57563,57.57117 -1.74153,7.98005 -4.50746,0.68685 -2.40397,2.79033 -5.23723,5.53772 c 0,0 -1.35627,1.7496 -3.09082,2.79033 -1.73456,1.04074 -4.50745,1.3737 -4.50745,1.3737 l -3.13376,0.34342 -2.4469,-0.34342 -3.13375,-1.3737 -4.85088,-2.79033 14.59556,-6.91142 7.6412,-2.10348 6.22458,-1.3737 z" id="path2831-1" style="fill:#000000;fill-opacity:1;stroke:#000000;stroke-width:1.3737px;stroke-linecap:butt;stroke-linejoin:miter;stroke-opacity:1"/>
  </g>
</svg>