<?xml version="1.0" encoding="UTF-8" standalone="no"?>
<!-- Created with Inkscape (http://www.inkscape.org/) -->
<svg version="1.1" width="179.37186mm" height="121.41862mm" viewBox="0 0 179.37186 121.41862" id="svg8" xmlns="http://www.w3.org/2000/svg" xmlns:svg="http://www.w3.org/2000/svg">
  <defs id="defs2"/>
  <g transform="translate(-1.6955634,-165.36379)" id="layer1">
    <path d="m 155.31239,286.67926 c -1.87213,-0.29505 -3.00341,-1.25334 -3.00341,-2.54416 0,-1.37096 0.80341,-1.83115 4.29059,-2.4576 1.988,-0.35713 2.32184,-0.48166 2.84251,-1.06034 0.90426,-1.00501 0.7998,-1.87419 -0.5576,-4.63961 -0.72472,-1.47644 -3.0472,-5.14425 -6.30278,-9.95374 -5.02958,-7.43024 -8.66672,-13.21129 -9.36836,-14.89055 -0.19152,-0.45837 -0.51613,-0.9609 -0.72136,-1.11673 -0.48658,-0.36944 -1.77181,-0.35837 -3.37657,0.0291 -0.70795,0.17094 -1.60267,0.31231 -1.98827,0.31415 -1.33359,0.007 -5.81282,3.07352 -9.19705,6.29766 -3.12281,2.97509 -5.9422,6.88228 -10.87388,15.06935 -1.33726,2.21996 -2.2961,4.09429 -2.68877,5.25596 -1.10617,3.27245 -2.03823,4.53198 -3.81969,5.16168 -1.62015,0.57269 -6.01635,0.34322 -12.235861,-0.63866 -6.412843,-1.0124 -7.35362,-1.20236 -8.292022,-1.67427 -0.896116,-0.45066 -2.284562,-1.79641 -2.283222,-2.21302 0.0022,-0.66749 1.048774,-1.60738 3.331477,-2.99171 3.387836,-2.05451 3.413253,-2.10099 4.067676,-7.43641 1.266295,-10.32388 2.677364,-15.97725 5.284822,-21.17322 0.58924,-1.17419 1.035,-2.17126 0.99056,-2.21569 -0.30392,-0.30392 -5.304117,-2.50335 -6.703393,-2.94861 -2.784771,-0.88615 -2.61184,-0.87346 -2.769408,-0.20331 -0.07709,0.32785 -0.227166,3.44398 -0.333502,6.92472 -0.115446,3.77873 -0.330343,7.17983 -0.533361,8.44125 -1.735614,10.78396 -5.024201,18.88824 -10.163213,25.04586 l -1.538958,1.84399 -1.662813,0.3682 c -2.428338,0.5377 -6.744902,0.76095 -14.813405,0.76613 -7.604304,0.005 -8.199664,-0.0686 -8.511148,-1.04995 -0.28269,-0.89068 0.995917,-2.9009 2.267997,-3.56572 0.306631,-0.16026 1.947783,-0.43831 3.647003,-0.6179 1.699224,-0.1796 3.580523,-0.47333 4.180668,-0.65275 2.084175,-0.62307 3.866935,-2.39819 4.72218,-4.70192 0.325028,-0.87551 0.40472,-1.6444 0.39185,-3.78065 -0.01427,-2.36952 -0.123707,-3.14352 -0.94026,-6.65041 -1.086525,-4.66632 -2.232023,-8.30462 -3.398117,-10.793 -0.88765,-1.8942 -2.836072,-5.06935 -3.395912,-5.53397 -0.183091,-0.15195 -0.796091,-1.19852 -1.362222,-2.3257 -1.093008,-2.17622 -1.673938,-2.88293 -2.273293,-2.76546 -0.215083,0.0421 -0.75829,0.83834 -1.299279,1.90438 -0.552356,1.08845 -1.869052,3.00926 -3.244237,4.73274 -1.273012,1.59544 -2.984303,3.90681 -3.802865,5.13639 -1.593762,2.39402 -3.911542,4.90031 -5.466865,5.91151 -0.526552,0.34234 -1.82528,1.27199 -2.886064,2.06592 -2.275483,1.70303 -6.646693,3.99563 -10.51212,5.51338 -1.521028,0.59723 -3.206823,1.3445 -3.746206,1.66061 -0.539386,0.31609 -2.48521,2.03012 -4.324062,3.80895 -3.670596,3.55078 -6.224636,5.34221 -9.646351,6.76603 -1.74459,0.72595 -1.934908,0.75869 -4.3978566,0.75657 -2.9719962,-0.002 -3.6214181,-0.23291 -4.5307901,-1.60707 -0.4211866,-0.63645 -0.5601617,-1.11967 -0.5601617,-1.94773 0,-1.39628 0.4606864,-2.04617 1.9985106,-2.81931 2.4928501,-1.25326 4.3720108,-4.01888 8.2236168,-12.10294 3.110922,-6.52944 4.624367,-9.25328 6.279963,-11.30237 0.66653,-0.82495 3.295147,-3.6327 5.841372,-6.23945 3.942353,-4.03604 6.882064,-7.42342 6.882064,-7.93007 0,-0.43464 -0.780259,0.0987 -2.681618,1.83329 -3.75804,3.42826 -7.263348,5.75917 -8.650403,5.75224 -0.315902,-0.001 -1.394944,-0.2899 -2.397872,-0.64072 -1.002923,-0.35082 -1.970764,-0.63913 -2.150755,-0.64072 -0.179993,-10e-4 -0.904029,0.28372 -1.608972,0.63399 -2.019485,1.00344 -2.89119,0.82613 -4.823247,-0.98109 l -1.0069888,-0.94192 -0.6942126,0.34632 c -1.1975147,0.5974 -2.1193415,0.28094 -5.0546861,-1.73521 -1.9998127,-1.37358 -2.0733998,-1.45724 -2.1800016,-2.47853 -0.078359,-0.75072 0.016982,-1.17139 0.4364805,-1.9259 1.1887105,-2.13802 1.4781983,-2.93819 2.3859743,-6.59507 0.5201296,-2.09529 1.0866459,-4.20784 1.258924,-4.69456 0.3498712,-0.98846 0.3591465,-0.95361 -1.5920254,-5.98 -0.7520336,-1.93731 -0.9332884,-2.6883 -1.0123334,-4.19441 -0.089461,-1.70455 -0.034929,-2.01809 0.7694355,-4.42386 0.9124619,-2.7291 1.9854829,-5.0449 3.1636717,-6.82785 1.4426636,-2.1832 1.5047347,-3.22123 0.3889382,-6.50426 -1.051168,-3.09288 -1.23612,-5.77598 -0.4745363,-6.88412 0.9516892,-1.38476 2.3445266,-2.02618 3.75192,-1.72781 0.371299,0.0788 1.245441,0.59122 1.942536,1.1389 2.438509,1.9158 4.164102,2.06205 6.501894,0.55107 1.827388,-1.1811 4.68756,-2.59176 10.204324,-5.03283 4.533641,-2.00606 7.182789,-3.3645 8.994058,-4.61201 0.471962,-0.32506 2.450999,-2.19999 4.397854,-4.16651 4.209858,-4.25237 5.72593,-5.45775 9.166628,-7.28807 3.926478,-2.08873 4.770647,-2.30434 9.502787,-2.42714 3.235505,-0.084 4.229788,-0.0377 5.349656,0.24926 2.260528,0.57912 5.273719,2.26822 7.838567,4.39406 1.616516,1.33982 3.008289,1.79315 5.577769,1.8168 1.179912,0.0113 2.791084,-0.11204 3.580385,-0.27313 1.248216,-0.25472 1.796095,-0.24711 4.207416,0.0585 3.525426,0.4468 4.535554,0.44121 11.547497,-0.0639 4.774104,-0.34392 7.515664,-0.40383 15.954824,-0.34868 9.59292,0.0627 10.29703,0.0936 12.01365,0.52762 5.5427,1.40128 9.18561,3.36961 12.56425,6.78865 1.34135,1.3574 1.68731,1.58652 3.00341,1.98919 3.19949,0.97889 6.82202,3.26031 10.15347,6.39452 1.6192,1.52334 2.10484,2.17081 3.86176,5.14871 4.89071,8.28946 5.69179,9.56678 7.64027,12.18225 4.25981,5.71801 6.82025,10.76662 11.18079,22.04603 1.63674,4.23375 3.13916,12.39738 3.50741,19.05803 0.12714,2.29976 0.42587,7.02927 0.66382,10.51001 0.23796,3.48075 0.51354,8.79035 0.61241,11.79913 l 0.17975,5.47051 -0.63382,2.86086 c -0.7388,3.33472 -1.07873,4.18548 -2.37417,5.94179 -1.9272,2.61284 -4.28708,3.28022 -13.99659,3.95822 -2.89621,0.20224 -6.58677,0.549 -7.72306,0.72564 -0.23599,0.0367 -0.67041,0.0287 -0.96539,-0.0178 z" id="path850" style="fill:#000000;fill-opacity:1;stroke:#000026;stroke-width:0.123569;stroke-linejoin:miter;stroke-miterlimit:10;stroke-dasharray:none;stroke-opacity:1"/>
  </g>
</svg>